<?xml version="1.0" standalone="no"?>
<!DOCTYPE svg PUBLIC "-//W3C//DTD SVG 20010904//EN"
 "http://www.w3.org/TR/2001/REC-SVG-20010904/DTD/svg10.dtd">
<svg version="1.0" xmlns="http://www.w3.org/2000/svg"
 width="674.000000pt" height="674.000000pt" viewBox="0 0 674.000000 674.000000"
 preserveAspectRatio="xMidYMid meet">
<metadata>
Created by potrace 1.14, written by Peter Selinger 2001-2017
</metadata>
<g transform="translate(0.000000,674.000000) scale(0.100000,-0.100000)"
fill="#000000" stroke="none">
<path d="M4343 4692 c-47 -16 -66 -34 -86 -80 -20 -46 -39 -97 -36 -97 1 0 -4
-11 -11 -25 -8 -14 -15 -29 -16 -35 -1 -5 -42 -111 -92 -235 -49 -124 -97
-247 -107 -275 -10 -27 -22 -55 -27 -61 -5 -7 -10 -20 -13 -30 -2 -11 -56
-152 -120 -314 -64 -162 -170 -431 -236 -597 -65 -167 -119 -307 -119 -313 0
-5 -5 -10 -11 -10 -5 0 -8 -4 -5 -8 8 -14 -25 -71 -46 -78 -11 -3 -140 -6
-287 -6 -332 0 -348 -3 -421 -78 -51 -52 -58 -65 -89 -167 -30 -99 -32 -114
-21 -147 11 -34 35 -55 70 -63 25 -6 843 -6 870 0 81 17 145 76 174 159 10 29
20 60 24 68 3 8 6 17 7 20 1 3 4 12 7 20 3 8 15 44 26 80 12 36 51 153 88 260
36 107 67 200 69 205 1 6 5 17 8 25 6 14 83 242 257 760 38 113 126 372 195
575 70 204 127 377 127 385 2 49 -3 59 -33 65 -52 12 -108 11 -146 -3z"/>
<path d="M2268 4452 c-1 -4 -68 -47 -148 -96 -80 -49 -170 -104 -200 -123
-304 -189 -392 -243 -400 -243 -4 0 -10 -4 -12 -9 -1 -4 -22 -19 -45 -32 -40
-23 -257 -156 -333 -204 -19 -12 -63 -39 -97 -60 l-63 -38 0 -263 c0 -145 4
-264 8 -264 5 0 33 17 64 38 30 20 62 42 71 47 32 19 293 187 477 306 102 66
193 123 203 126 9 3 17 8 17 12 0 4 27 23 60 42 33 18 60 37 60 42 0 4 5 7 10
7 6 0 69 38 141 85 71 47 134 85 140 85 5 0 9 3 9 8 0 4 14 15 30 24 l30 17 0
245 c0 137 -4 247 -9 250 -5 4 -11 3 -13 -2z"/>
<path d="M4579 4457 c-1 -1 -2 -113 -3 -250 l-1 -247 65 -42 c36 -23 116 -75
178 -115 62 -40 115 -73 118 -73 2 0 10 -5 17 -11 7 -5 82 -55 167 -110 218
-141 254 -163 265 -168 6 -2 18 -10 28 -19 9 -8 26 -20 37 -26 50 -28 205
-130 208 -137 2 -5 8 -9 14 -9 6 0 55 -29 109 -65 55 -36 103 -65 107 -65 4 0
7 117 7 261 l0 260 -25 20 c-14 10 -36 25 -50 32 -14 8 -61 36 -105 64 -44 27
-116 72 -160 99 -44 27 -81 52 -83 57 -2 4 -7 7 -12 7 -9 0 -80 43 -309 186
-75 47 -143 89 -151 94 -8 5 -106 66 -217 134 -112 69 -204 124 -204 123z"/>
<path d="M2898 3245 c-2 -1 -28 -5 -58 -9 -99 -10 -138 -25 -174 -65 -16 -18
-19 -36 -18 -119 2 -95 2 -98 32 -123 49 -42 128 -59 260 -55 93 2 125 7 167
25 78 35 84 45 86 152 2 78 0 96 -17 116 -22 28 -86 59 -138 66 -20 2 -41 7
-46 11 -6 3 -13 2 -17 -4 -4 -6 -11 -8 -16 -4 -11 6 -56 13 -61 9z m-163 -200
c86 -35 268 -34 367 1 21 7 38 12 39 11 9 -17 2 -80 -10 -91 -58 -51 -259 -65
-377 -26 -41 14 -57 33 -60 73 -1 34 3 49 14 44 4 -2 16 -8 27 -12z"/>
<path d="M1765 3084 c-44 -30 -111 -76 -150 -102 -38 -26 -72 -49 -75 -52 -3
-3 -20 -16 -38 -29 -28 -19 -31 -26 -20 -36 7 -7 96 -68 198 -136 102 -68 187
-126 190 -129 3 -4 23 -17 45 -30 22 -13 45 -28 50 -33 34 -29 350 -236 353
-232 3 3 5 121 5 262 l1 258 -235 157 c-128 87 -236 158 -239 158 -3 0 -41
-25 -85 -56z"/>
<path d="M4909 3072 c-57 -37 -163 -107 -235 -155 l-132 -89 0 -264 c1 -145 3
-264 5 -264 2 0 102 66 221 147 119 81 273 185 342 231 69 46 133 91 143 100
9 8 17 12 17 9 0 -4 19 8 43 26 23 17 53 39 66 47 l23 16 -58 40 c-33 22 -119
82 -191 132 -73 51 -134 92 -136 92 -2 0 -51 -30 -108 -68z"/>
</g>
</svg>
